<mxfile host="app.diagrams.net" modified="2020-12-23T03:16:51.935Z" agent="5.0 (Macintosh; Intel Mac OS X 10_15_4) AppleWebKit/537.36 (KHTML, like Gecko) Chrome/87.0.4280.88 Safari/537.36" etag="5-Y1sbh5r0XYJg1b8HOZ" version="14.1.1" type="github">
  <diagram name="Page-1" id="74e2e168-ea6b-b213-b513-2b3c1d86103e">
    <mxGraphModel dx="541" dy="273" grid="1" gridSize="10" guides="1" tooltips="1" connect="1" arrows="1" fold="1" page="1" pageScale="1" pageWidth="1100" pageHeight="850" background="#ffffff" math="0" shadow="0">
      <root>
        <mxCell id="0" />
        <mxCell id="1" parent="0" />
        <mxCell id="77e6c97f196da883-1" value="上传" style="swimlane;html=1;childLayout=stackLayout;startSize=20;rounded=0;shadow=0;labelBackgroundColor=none;strokeWidth=1;fontFamily=Verdana;fontSize=8;align=center;" parent="1" vertex="1">
          <mxGeometry x="120" y="30" width="505" height="1190" as="geometry" />
        </mxCell>
        <mxCell id="77e6c97f196da883-2" value="前端" style="swimlane;html=1;startSize=20;direction=south;" parent="77e6c97f196da883-1" vertex="1">
          <mxGeometry y="20" width="345" height="1170" as="geometry" />
        </mxCell>
        <mxCell id="77e6c97f196da883-8" value="1. 获取 credentials" style="rounded=1;whiteSpace=wrap;html=1;shadow=0;labelBackgroundColor=none;strokeWidth=1;fontFamily=Verdana;fontSize=8;align=center;" parent="77e6c97f196da883-2" vertex="1">
          <mxGeometry x="20" y="65" width="100" height="60" as="geometry" />
        </mxCell>
        <mxCell id="ariyujrKOu3TFiCnZjV--5" value="2. upload/multipart/initiate" style="rounded=1;whiteSpace=wrap;html=1;shadow=0;labelBackgroundColor=none;strokeWidth=1;fontFamily=Verdana;fontSize=8;align=center;" vertex="1" parent="77e6c97f196da883-2">
          <mxGeometry x="20" y="210" width="100" height="60" as="geometry" />
        </mxCell>
        <mxCell id="ariyujrKOu3TFiCnZjV--19" value="3. multipartUpload" style="rounded=1;whiteSpace=wrap;html=1;shadow=0;labelBackgroundColor=none;strokeWidth=1;fontFamily=Verdana;fontSize=8;align=center;" vertex="1" parent="77e6c97f196da883-2">
          <mxGeometry x="20" y="440" width="100" height="60" as="geometry" />
        </mxCell>
        <mxCell id="ariyujrKOu3TFiCnZjV--42" value="4. multipart/complete" style="rounded=1;whiteSpace=wrap;html=1;shadow=0;labelBackgroundColor=none;strokeWidth=1;fontFamily=Verdana;fontSize=8;align=center;" vertex="1" parent="77e6c97f196da883-2">
          <mxGeometry x="20" y="790" width="100" height="60" as="geometry" />
        </mxCell>
        <mxCell id="ariyujrKOu3TFiCnZjV--45" value="" style="endArrow=classic;html=1;entryX=-0.019;entryY=0.157;entryDx=0;entryDy=0;entryPerimeter=0;" edge="1" parent="77e6c97f196da883-2" target="ariyujrKOu3TFiCnZjV--43">
          <mxGeometry width="50" height="50" relative="1" as="geometry">
            <mxPoint x="120" y="800" as="sourcePoint" />
            <mxPoint x="168" y="800" as="targetPoint" />
          </mxGeometry>
        </mxCell>
        <mxCell id="77e6c97f196da883-3" value="后端" style="swimlane;html=1;startSize=20;" parent="77e6c97f196da883-2" vertex="1">
          <mxGeometry x="160" width="185" height="1170" as="geometry" />
        </mxCell>
        <mxCell id="77e6c97f196da883-11" value="返回 credentials" style="rounded=1;whiteSpace=wrap;html=1;shadow=0;labelBackgroundColor=none;strokeWidth=1;fontFamily=Verdana;fontSize=8;align=center;" parent="77e6c97f196da883-3" vertex="1">
          <mxGeometry x="30" y="65" width="100" height="60" as="geometry" />
        </mxCell>
        <mxCell id="ariyujrKOu3TFiCnZjV--3" value="id,secret,bucket,expirationTimestamp&lt;br&gt;region,stsToken" style="text;html=1;resizable=0;autosize=1;align=center;verticalAlign=middle;points=[];fillColor=none;strokeColor=none;rounded=0;" vertex="1" parent="77e6c97f196da883-3">
          <mxGeometry x="-100" y="125" width="210" height="30" as="geometry" />
        </mxCell>
        <mxCell id="ariyujrKOu3TFiCnZjV--6" value="upload/multipart/initiate" style="rounded=1;whiteSpace=wrap;html=1;shadow=0;labelBackgroundColor=none;strokeWidth=1;fontFamily=Verdana;fontSize=8;align=center;" vertex="1" parent="77e6c97f196da883-3">
          <mxGeometry x="30" y="210" width="100" height="60" as="geometry" />
        </mxCell>
        <mxCell id="ariyujrKOu3TFiCnZjV--7" style="edgeStyle=orthogonalEdgeStyle;rounded=1;html=1;labelBackgroundColor=none;startArrow=none;startFill=0;startSize=5;endArrow=classicThin;endFill=1;endSize=5;jettySize=auto;orthogonalLoop=1;strokeWidth=1;fontFamily=Verdana;fontSize=8" edge="1" parent="77e6c97f196da883-3">
          <mxGeometry relative="1" as="geometry">
            <mxPoint x="-40" y="230" as="sourcePoint" />
            <mxPoint x="30" y="230" as="targetPoint" />
            <Array as="points">
              <mxPoint x="-10" y="230" />
              <mxPoint x="-10" y="230" />
            </Array>
          </mxGeometry>
        </mxCell>
        <mxCell id="ariyujrKOu3TFiCnZjV--8" value="filename,ownerId,ownerType,path,parentId,size" style="text;html=1;resizable=0;autosize=1;align=center;verticalAlign=middle;points=[];fillColor=none;strokeColor=none;rounded=0;" vertex="1" parent="77e6c97f196da883-3">
          <mxGeometry x="-110" y="180" width="270" height="20" as="geometry" />
        </mxCell>
        <mxCell id="ariyujrKOu3TFiCnZjV--11" value="objectName,task(id,status,timestamp,uploadId),bizJson" style="text;html=1;resizable=0;autosize=1;align=center;verticalAlign=middle;points=[];fillColor=none;strokeColor=none;rounded=0;" vertex="1" parent="77e6c97f196da883-3">
          <mxGeometry x="-165" y="280" width="310" height="20" as="geometry" />
        </mxCell>
        <mxCell id="ariyujrKOu3TFiCnZjV--25" value="objectName,name,size,type,uid" style="text;html=1;resizable=0;autosize=1;align=center;verticalAlign=middle;points=[];fillColor=none;strokeColor=none;rounded=0;" vertex="1" parent="77e6c97f196da883-3">
          <mxGeometry x="-30" y="380" width="180" height="20" as="geometry" />
        </mxCell>
        <mxCell id="ariyujrKOu3TFiCnZjV--27" value="bucket,key(objectName),uploadId" style="text;html=1;resizable=0;autosize=1;align=center;verticalAlign=middle;points=[];fillColor=none;strokeColor=none;rounded=0;" vertex="1" parent="77e6c97f196da883-3">
          <mxGeometry x="30" y="440" width="190" height="20" as="geometry" />
        </mxCell>
        <mxCell id="ariyujrKOu3TFiCnZjV--28" value="updateUploadId" style="rounded=1;whiteSpace=wrap;html=1;shadow=0;labelBackgroundColor=none;strokeWidth=1;fontFamily=Verdana;fontSize=8;align=center;" vertex="1" parent="77e6c97f196da883-3">
          <mxGeometry x="30" y="490" width="100" height="60" as="geometry" />
        </mxCell>
        <mxCell id="ariyujrKOu3TFiCnZjV--31" value="taskId,uploadId" style="text;html=1;resizable=0;autosize=1;align=center;verticalAlign=middle;points=[];fillColor=none;strokeColor=none;rounded=0;" vertex="1" parent="77e6c97f196da883-3">
          <mxGeometry x="-25" y="470" width="100" height="20" as="geometry" />
        </mxCell>
        <mxCell id="ariyujrKOu3TFiCnZjV--36" value="partNumber,etag" style="text;html=1;resizable=0;autosize=1;align=center;verticalAlign=middle;points=[];fillColor=none;strokeColor=none;rounded=0;" vertex="1" parent="77e6c97f196da883-3">
          <mxGeometry x="-10" y="660" width="100" height="20" as="geometry" />
        </mxCell>
        <mxCell id="ariyujrKOu3TFiCnZjV--37" value="location,backet,key(objectNumber),etag" style="text;html=1;resizable=0;autosize=1;align=center;verticalAlign=middle;points=[];fillColor=none;strokeColor=none;rounded=0;" vertex="1" parent="77e6c97f196da883-3">
          <mxGeometry x="-75" y="690" width="230" height="20" as="geometry" />
        </mxCell>
        <mxCell id="ariyujrKOu3TFiCnZjV--43" value="multipart/complete" style="rounded=1;whiteSpace=wrap;html=1;shadow=0;labelBackgroundColor=none;strokeWidth=1;fontFamily=Verdana;fontSize=8;align=center;" vertex="1" parent="77e6c97f196da883-3">
          <mxGeometry x="30" y="790" width="100" height="60" as="geometry" />
        </mxCell>
        <mxCell id="ariyujrKOu3TFiCnZjV--47" value="bucket,etag,taskId" style="text;html=1;resizable=0;autosize=1;align=center;verticalAlign=middle;points=[];fillColor=none;strokeColor=none;rounded=0;" vertex="1" parent="77e6c97f196da883-3">
          <mxGeometry x="-65" y="770" width="110" height="20" as="geometry" />
        </mxCell>
        <mxCell id="ariyujrKOu3TFiCnZjV--56" value="abortMultipartUpload" style="rounded=1;whiteSpace=wrap;html=1;shadow=0;labelBackgroundColor=none;strokeWidth=1;fontFamily=Verdana;fontSize=8;align=center;" vertex="1" parent="77e6c97f196da883-3">
          <mxGeometry x="45" y="1080" width="100" height="60" as="geometry" />
        </mxCell>
        <mxCell id="ariyujrKOu3TFiCnZjV--58" value="ownerId,ownerType,taskId" style="text;html=1;resizable=0;autosize=1;align=center;verticalAlign=middle;points=[];fillColor=none;strokeColor=none;rounded=0;" vertex="1" parent="77e6c97f196da883-3">
          <mxGeometry x="-40" y="1050" width="160" height="20" as="geometry" />
        </mxCell>
        <mxCell id="ariyujrKOu3TFiCnZjV--60" value="" style="endArrow=none;html=1;" edge="1" parent="77e6c97f196da883-3">
          <mxGeometry width="50" height="50" relative="1" as="geometry">
            <mxPoint x="-160" y="980" as="sourcePoint" />
            <mxPoint x="345" y="980" as="targetPoint" />
          </mxGeometry>
        </mxCell>
        <mxCell id="ariyujrKOu3TFiCnZjV--2" value="" style="endArrow=classic;html=1;exitX=0;exitY=0.75;exitDx=0;exitDy=0;entryX=1;entryY=0.75;entryDx=0;entryDy=0;" edge="1" parent="77e6c97f196da883-2" source="77e6c97f196da883-11" target="77e6c97f196da883-8">
          <mxGeometry width="50" height="50" relative="1" as="geometry">
            <mxPoint x="90" y="160" as="sourcePoint" />
            <mxPoint x="140" y="110" as="targetPoint" />
          </mxGeometry>
        </mxCell>
        <mxCell id="77e6c97f196da883-26" style="edgeStyle=orthogonalEdgeStyle;rounded=1;html=1;labelBackgroundColor=none;startArrow=none;startFill=0;startSize=5;endArrow=classicThin;endFill=1;endSize=5;jettySize=auto;orthogonalLoop=1;strokeWidth=1;fontFamily=Verdana;fontSize=8" parent="77e6c97f196da883-2" source="77e6c97f196da883-8" target="77e6c97f196da883-11" edge="1">
          <mxGeometry relative="1" as="geometry">
            <Array as="points">
              <mxPoint x="150" y="80" />
              <mxPoint x="150" y="80" />
            </Array>
          </mxGeometry>
        </mxCell>
        <mxCell id="ariyujrKOu3TFiCnZjV--30" value="" style="endArrow=classic;html=1;exitX=0;exitY=0.5;exitDx=0;exitDy=0;entryX=1.036;entryY=0.676;entryDx=0;entryDy=0;entryPerimeter=0;" edge="1" parent="77e6c97f196da883-2" source="ariyujrKOu3TFiCnZjV--28" target="ariyujrKOu3TFiCnZjV--19">
          <mxGeometry width="50" height="50" relative="1" as="geometry">
            <mxPoint x="230" y="510" as="sourcePoint" />
            <mxPoint x="280" y="460" as="targetPoint" />
          </mxGeometry>
        </mxCell>
        <mxCell id="ariyujrKOu3TFiCnZjV--29" value="" style="endArrow=classic;html=1;entryX=0;entryY=0.25;entryDx=0;entryDy=0;exitX=1;exitY=0.5;exitDx=0;exitDy=0;" edge="1" parent="77e6c97f196da883-2" source="ariyujrKOu3TFiCnZjV--19" target="ariyujrKOu3TFiCnZjV--28">
          <mxGeometry width="50" height="50" relative="1" as="geometry">
            <mxPoint x="70" y="610" as="sourcePoint" />
            <mxPoint x="120" y="560" as="targetPoint" />
          </mxGeometry>
        </mxCell>
        <mxCell id="ariyujrKOu3TFiCnZjV--46" value="" style="endArrow=classic;html=1;exitX=0;exitY=0.75;exitDx=0;exitDy=0;entryX=1;entryY=0.75;entryDx=0;entryDy=0;" edge="1" parent="77e6c97f196da883-2" source="ariyujrKOu3TFiCnZjV--43" target="ariyujrKOu3TFiCnZjV--42">
          <mxGeometry width="50" height="50" relative="1" as="geometry">
            <mxPoint x="130" y="860.58" as="sourcePoint" />
            <mxPoint x="123" y="831" as="targetPoint" />
            <Array as="points" />
          </mxGeometry>
        </mxCell>
        <mxCell id="ariyujrKOu3TFiCnZjV--49" value="cancel" style="rounded=1;whiteSpace=wrap;html=1;shadow=0;labelBackgroundColor=none;strokeWidth=1;fontFamily=Verdana;fontSize=8;align=center;" vertex="1" parent="77e6c97f196da883-2">
          <mxGeometry x="20" y="890" width="100" height="60" as="geometry" />
        </mxCell>
        <mxCell id="ariyujrKOu3TFiCnZjV--52" value="abortMultipartUpload" style="rounded=1;whiteSpace=wrap;html=1;shadow=0;labelBackgroundColor=none;strokeWidth=1;fontFamily=Verdana;fontSize=8;align=center;" vertex="1" parent="77e6c97f196da883-2">
          <mxGeometry x="20" y="1000" width="100" height="60" as="geometry" />
        </mxCell>
        <mxCell id="ariyujrKOu3TFiCnZjV--57" value="" style="endArrow=classic;html=1;exitX=1;exitY=0.75;exitDx=0;exitDy=0;" edge="1" parent="77e6c97f196da883-2" source="ariyujrKOu3TFiCnZjV--52">
          <mxGeometry width="50" height="50" relative="1" as="geometry">
            <mxPoint x="120" y="1150" as="sourcePoint" />
            <mxPoint x="200" y="1100" as="targetPoint" />
          </mxGeometry>
        </mxCell>
        <mxCell id="ariyujrKOu3TFiCnZjV--12" value="阿里云服务器" style="swimlane;html=1;startSize=20;" vertex="1" parent="77e6c97f196da883-1">
          <mxGeometry x="345" y="20" width="160" height="1170" as="geometry" />
        </mxCell>
        <mxCell id="ariyujrKOu3TFiCnZjV--20" value="initMultipartUpload" style="rounded=1;whiteSpace=wrap;html=1;shadow=0;labelBackgroundColor=none;strokeWidth=1;fontFamily=Verdana;fontSize=8;align=center;" vertex="1" parent="ariyujrKOu3TFiCnZjV--12">
          <mxGeometry x="30" y="360" width="100" height="60" as="geometry" />
        </mxCell>
        <mxCell id="ariyujrKOu3TFiCnZjV--21" value="multipartUpload" style="rounded=1;whiteSpace=wrap;html=1;shadow=0;labelBackgroundColor=none;strokeWidth=1;fontFamily=Verdana;fontSize=8;align=center;" vertex="1" parent="ariyujrKOu3TFiCnZjV--12">
          <mxGeometry x="30" y="590" width="100" height="60" as="geometry" />
        </mxCell>
        <mxCell id="ariyujrKOu3TFiCnZjV--22" value="completeMultipartUpload" style="rounded=1;whiteSpace=wrap;html=1;shadow=0;labelBackgroundColor=none;strokeWidth=1;fontFamily=Verdana;fontSize=8;align=center;" vertex="1" parent="ariyujrKOu3TFiCnZjV--12">
          <mxGeometry x="30" y="670" width="100" height="60" as="geometry" />
        </mxCell>
        <mxCell id="ariyujrKOu3TFiCnZjV--50" value="cancel" style="rounded=1;whiteSpace=wrap;html=1;shadow=0;labelBackgroundColor=none;strokeWidth=1;fontFamily=Verdana;fontSize=8;align=center;" vertex="1" parent="ariyujrKOu3TFiCnZjV--12">
          <mxGeometry x="35" y="890" width="100" height="60" as="geometry" />
        </mxCell>
        <mxCell id="ariyujrKOu3TFiCnZjV--53" value="abortMultipartUpload" style="rounded=1;whiteSpace=wrap;html=1;shadow=0;labelBackgroundColor=none;strokeWidth=1;fontFamily=Verdana;fontSize=8;align=center;" vertex="1" parent="ariyujrKOu3TFiCnZjV--12">
          <mxGeometry x="30" y="1000" width="100" height="60" as="geometry" />
        </mxCell>
        <mxCell id="ariyujrKOu3TFiCnZjV--59" value="" style="endArrow=none;html=1;" edge="1" parent="ariyujrKOu3TFiCnZjV--12">
          <mxGeometry width="50" height="50" relative="1" as="geometry">
            <mxPoint x="-345" y="880" as="sourcePoint" />
            <mxPoint x="160" y="880" as="targetPoint" />
          </mxGeometry>
        </mxCell>
        <mxCell id="ariyujrKOu3TFiCnZjV--24" value="" style="endArrow=classic;html=1;exitX=1;exitY=0.25;exitDx=0;exitDy=0;" edge="1" parent="77e6c97f196da883-1" source="ariyujrKOu3TFiCnZjV--19">
          <mxGeometry width="50" height="50" relative="1" as="geometry">
            <mxPoint x="170" y="510" as="sourcePoint" />
            <mxPoint x="349" y="400" as="targetPoint" />
          </mxGeometry>
        </mxCell>
        <mxCell id="ariyujrKOu3TFiCnZjV--33" style="edgeStyle=orthogonalEdgeStyle;rounded=0;orthogonalLoop=1;jettySize=auto;html=1;entryX=-0.003;entryY=0.329;entryDx=0;entryDy=0;entryPerimeter=0;" edge="1" parent="77e6c97f196da883-1" source="ariyujrKOu3TFiCnZjV--19" target="ariyujrKOu3TFiCnZjV--21">
          <mxGeometry relative="1" as="geometry">
            <Array as="points">
              <mxPoint x="100" y="630" />
            </Array>
          </mxGeometry>
        </mxCell>
        <mxCell id="ariyujrKOu3TFiCnZjV--35" style="edgeStyle=orthogonalEdgeStyle;rounded=0;orthogonalLoop=1;jettySize=auto;html=1;entryX=0;entryY=0.25;entryDx=0;entryDy=0;" edge="1" parent="77e6c97f196da883-1" source="ariyujrKOu3TFiCnZjV--19" target="ariyujrKOu3TFiCnZjV--22">
          <mxGeometry relative="1" as="geometry">
            <Array as="points">
              <mxPoint x="70" y="705" />
            </Array>
          </mxGeometry>
        </mxCell>
        <mxCell id="ariyujrKOu3TFiCnZjV--51" style="edgeStyle=orthogonalEdgeStyle;rounded=0;orthogonalLoop=1;jettySize=auto;html=1;entryX=0;entryY=0.5;entryDx=0;entryDy=0;" edge="1" parent="77e6c97f196da883-1" source="ariyujrKOu3TFiCnZjV--49" target="ariyujrKOu3TFiCnZjV--50">
          <mxGeometry relative="1" as="geometry" />
        </mxCell>
        <mxCell id="ariyujrKOu3TFiCnZjV--54" style="edgeStyle=orthogonalEdgeStyle;rounded=0;orthogonalLoop=1;jettySize=auto;html=1;entryX=0;entryY=0.5;entryDx=0;entryDy=0;" edge="1" parent="77e6c97f196da883-1" source="ariyujrKOu3TFiCnZjV--52" target="ariyujrKOu3TFiCnZjV--53">
          <mxGeometry relative="1" as="geometry" />
        </mxCell>
        <mxCell id="ariyujrKOu3TFiCnZjV--26" value="" style="endArrow=classic;html=1;exitX=-0.03;exitY=0.667;exitDx=0;exitDy=0;exitPerimeter=0;" edge="1" parent="1" source="ariyujrKOu3TFiCnZjV--20">
          <mxGeometry width="50" height="50" relative="1" as="geometry">
            <mxPoint x="350" y="500" as="sourcePoint" />
            <mxPoint x="240" y="510" as="targetPoint" />
            <Array as="points">
              <mxPoint x="240" y="510" />
            </Array>
          </mxGeometry>
        </mxCell>
        <mxCell id="ariyujrKOu3TFiCnZjV--34" value="partNumber,uploadId" style="text;html=1;resizable=0;autosize=1;align=center;verticalAlign=middle;points=[];fillColor=none;strokeColor=none;rounded=0;" vertex="1" parent="1">
          <mxGeometry x="305" y="640" width="130" height="20" as="geometry" />
        </mxCell>
        <mxCell id="ariyujrKOu3TFiCnZjV--55" value="key(objectName),uploadId" style="text;html=1;resizable=0;autosize=1;align=center;verticalAlign=middle;points=[];fillColor=none;strokeColor=none;rounded=0;" vertex="1" parent="1">
          <mxGeometry x="300" y="1060" width="160" height="20" as="geometry" />
        </mxCell>
      </root>
    </mxGraphModel>
  </diagram>
</mxfile>
